<svg width="16" height="18" viewBox="0 0 16 18" fill="none" xmlns="http://www.w3.org/2000/svg">
<path d="M1 14.3333V3.66663C1 2.78706 1 2.34728 1.18509 2.08704C1.34664 1.8599 1.59564 1.71053 1.87207 1.67487C2.1885 1.63406 2.57572 1.84058 3.35036 2.25372L3.35254 2.25488L13.3525 7.58822C14.212 8.0466 14.6418 8.27584 14.7826 8.58103C14.9053 8.84689 14.9053 9.15309 14.7826 9.41895C14.6418 9.72413 14.212 9.95335 13.3525 10.4117L3.35254 15.7451L3.34978 15.7465C2.57553 16.1595 2.18842 16.3659 1.87207 16.3251C1.59564 16.2895 1.34664 16.1401 1.18509 15.913C1 15.6527 1 15.2129 1 14.3333Z" stroke="#162556" stroke-width="2" stroke-linecap="round" stroke-linejoin="round"/>
</svg>
